<svg xmlns="http://www.w3.org/2000/svg" width="800" viewBox="0 0 600 1499.99993" height="2000" version="1.0">
  <defs>
    <clipPath id="a">
      <path d="M0 82.80078h595.5v1393.4961H0Zm0 0"/>
    </clipPath>
  </defs>
  <g clip-path="url(#a)">
    <path stroke="#fb7185" fill="none" transform="matrix(.0851 0 0 -.08513 1.56415 1473.56001)" d="M2019.26396 6348.70755c-264.50046-237.42259-529.09274-474.89106-756.31893-854.74883-227.2721-379.85778-417.1781-902.19664-529.13864-1566.9707-111.91464-664.77405-145.8379-1472.02918-206.8906-2180.90125C465.8631 1037.21471 377.68098 426.72572 252.17867 172.3706 126.72227-82.0304-36.1002 19.74835 69.0206 423.33003 174.1414 826.9576 547.2514 1532.43398 940.69698 2298.9409c393.4456 766.55282 807.22678 1594.13617 1020.9112 2167.31852 213.68443 573.18235 227.2721 892.05547 189.95192 1265.12188-37.32018 373.0664-125.5023 800.46377-288.27888 1221.02387-162.82249 420.5601-400.23943 834.37472-546.07733 1136.22354-145.8379 301.8488-200.09676 491.7777-186.555 702.08069 13.54177 210.303 94.97596 440.9342 139.04407 739.38734 44.11401 298.49901 50.90785 664.77405 71.24344 922.61663 20.3356 257.65902 54.25887 406.97736 125.5023 617.28036 71.19755 210.21122 179.76117 481.59064 257.75255 824.18767 77.99137 342.50525 125.5023 756.31987 189.95191 976.80991 64.44961 220.39828 145.8379 247.60964 189.906 196.72026 44.11402-50.88938 50.86195-179.8336 27.17534-298.5449-23.77841-118.6654-78.03727-227.14375-135.69305-271.28765-57.65578-44.05212-118.70847-23.7698-128.85332 74.61328-10.19075 98.42896 30.52635 274.68334 84.78521 386.69504 54.21296 111.91992 122.10539 159.41361 206.84469 132.20225 84.83111-27.11959 186.555-128.89835 217.08134-278.07902 30.57225-149.22656-10.14484-345.90093-50.86194-525.68866-40.6712-179.8336-81.38829-342.59702-50.86194-396.79031 30.52634-54.33095 132.29613 0 220.43235 108.47835 88.22803 108.47835 162.8684 271.28765 159.42557 359.48367-3.39692 88.19602-84.7852 101.77876-193.34883-64.42623-108.51772-166.1591-244.21077-512.1977-403.59044-827.58335-159.37966-315.38566-342.58364-600.25605-471.48286-803.76768-128.85332-203.51162-203.44778-325.71038-213.63853-542.71296-10.19075-217.09437 44.11402-529.13023 64.44961-824.18768 20.3356-295.10333 6.74793-573.22823 13.54176-773.34418 6.79384-200.11594 33.92327-322.22291 74.64036-410.41893 40.6712-88.15013 94.97596-142.4352 186.555-220.44416 91.53314-78.00897 220.47826-179.74184 271.3402-142.4352 50.86195 37.30664 23.68662 213.6528-23.77841 451.07538-47.46503 237.42258-115.31155 535.9216-179.76116 756.36576-64.44961 220.44416-125.5023 362.92524-94.97596 556.24981 30.52634 193.32457 152.67764 437.53853 261.14945 671.51954 108.56363 234.0269 203.53958 457.91263 281.57686 634.30467 77.99137 176.30026 139.04407 305.1986 193.30293 329.01428 54.25886 23.67802 101.76979-57.72663 105.1208-149.27245 3.39692-91.54582-37.27428-193.32457-91.53314-247.60963-54.30476-54.23918-122.10538-61.03055-152.67763-27.1196-30.48045 33.91096-23.68661 108.52425 16.98458 200.07006 40.7171 91.6376 115.31155 200.11594 193.30293 227.3273 78.03727 27.1196 159.42556-27.21136 186.6009-142.48108 27.08352-115.3156 0-291.70764-67.84653-562.9953-67.84653-271.4253-176.36425-637.70035-247.60769-858.1445-71.19754-220.44417-105.1208-295.05745-91.57904-298.49902 13.58767-3.39569 74.59446 64.47212 169.57041-101.73287 94.97596-166.20499 223.87518-566.39098 461.29212-970.01855s583.3516-810.65082 810.6237-1234.6066c227.22619-423.9558 335.78981-864.89 295.07271-1465.19194-40.7171-600.34783-230.669-1360.10927-213.68442-1319.40694 16.98458 40.70232 240.81385 881.86841 332.3929 1468.6335 91.57903 586.76509 50.86194 919.12917-37.32019 1278.65873-88.18212 359.52956-223.87517 746.1787-406.98735 1058.21457-183.15808 312.03586-413.78119 549.45845-532.48966 830.97904-118.75437 281.5206-125.5023 607.1392-132.29614 915.77937-6.79383 308.5943-13.54176 600.30194-64.4496 780.13555-50.86195 179.65006-145.792 247.60964-206.8906 345.85505-61.0527 98.42896-88.22803 227.3273-101.72388 329.01428-13.58767 101.77876-13.58767 176.43793 37.32018 315.52333 50.86194 138.99362 152.58583 342.50525 172.92142 532.48002 20.3815 189.883-40.6712 366.32093-84.7852 457.82086-44.06812 91.5917-71.19754 98.38307-115.31156 315.47744-44.0681 217.00258-105.1208 644.39994-200.09676 1041.19026-94.97596 396.88208-223.87518 763.2489-128.89922 963.31895 94.97596 200.11594 413.78119 233.98101 756.36483-74.61328 342.53775-308.68607 708.85391-959.87738 875.07331-1641.58397 166.1735-681.79837 132.25023-1394.02023 27.12943-1767.13252-105.1667-373.06641-281.53095-406.97737-502.00921-230.6771-220.43236 176.39203-484.97873 563.08707-532.48966 647.8874-47.46503 84.80034 122.10539-132.29403 349.37748-390.09072 227.22619-257.79668 512.15406-556.20392 881.82123-773.29829 369.71308-217.09436 824.21137-352.6923 1160.00118-379.90366 335.74391-27.11959 552.82526 54.33095 678.32756 196.81203 125.5023 142.3893 159.37966 345.90093 132.29614 525.68866-27.12943 179.69594-115.35746 335.71388-247.6077 407.02325-132.29613 71.1717-308.66038 57.58897-386.65175 98.2913-78.03728 40.70232-57.65578 135.6897 33.87736 159.41361 91.62494 23.7698 254.40152-23.7239 444.35343 3.39569 189.90602 27.16547 406.98736 128.89834 539.2376 234.07278 132.29613 105.12856 179.76116 213.6069 254.44742 257.70492 74.59446 44.098 176.36425 23.81567 142.39508 6.83725-33.92326-16.93253-203.49368-30.51527-423.97194-30.51527-220.43235 0-491.77256 13.58274-769.9066 30.51527-278.08813 16.97843-563.016 37.26076-776.70043 54.23918-213.68442 16.93253-356.1254 30.51527-420.57502 16.93253-64.4496-13.49096-50.86194-54.19328 27.12943-40.70232 78.03728 13.58273 220.52417 81.40465 373.11 176.39204 152.63173 94.98738 315.40831 217.09436 451.10136 227.3273 135.64715 10.09528 244.21078-91.5917 362.91925-101.82464 118.70847-10.18706 247.56178 71.2176 386.65175 47.49369 139.04407-23.67801 288.27889-152.57636 420.57503-230.58533 132.25023-78.10074 247.56178-105.22033 186.50909-122.10697-61.00679-16.97842-298.42373-23.81568-505.36023-30.60705-206.8906-6.79137-383.25484-13.49096-420.57502 47.4937-37.27428 61.12232 64.44961 189.92888 105.1667 318.82723 40.6712 128.89834 20.3356 257.79669 30.52635 376.50798 10.14485 118.71129 50.90785 227.28142 125.5023 271.37943 74.59447 44.00623 183.15809 23.7239 264.54638 40.70232 81.38829 16.88665 135.64715 71.2176 139.04407 145.785 3.39691 74.61327-44.06811 169.60066-57.65578 159.4136-13.54176-10.18704 6.79383-125.50265-23.73251-200.11593-30.52635-74.5674-111.96054-108.47835-169.57042-81.35877-57.70168 27.0737-91.57904 115.26972-145.8379 122.0611-54.30476 6.83725-128.89922-67.77603-196.74574-132.29404-67.84653-64.38034-128.85332-118.6654-193.30293-91.5917-64.44961 27.21136-132.29614 135.68971-189.95192 213.69868-57.65577 78.00897-105.1667 125.50266-139.04406 108.57013-33.96917-16.97843-54.30477-98.38308-54.30477-159.4595 0-60.98467 20.3356-101.687-40.67119-88.10425-61.0527 13.49096-203.53958 81.40465-257.79844 186.48731-54.25886 105.08267-20.3356 247.60964 74.64036 356.13388 94.93005 108.57012 251.0046 183.1834 335.78981 417.16441 84.78521 234.0269 98.32697 627.5133-10.19075 987.04287-108.51772 359.48366-339.14082 685.05638-407.03325 881.86841-67.80063 196.67437 27.17533 264.49629 67.89243 220.39828 40.67119-44.09801 27.08352-200.11595-81.4342-230.58533-108.51772-30.51527-312.0573 64.38034-535.88657 152.57636-223.82928 88.19602-468.04005 169.60067-708.8539 162.8093-240.81386-6.79137-478.2767-101.68698-617.32078-240.77238-139.04406-139.13128-179.71525-322.22292-118.70847-464.74989 61.0527-142.3893 223.82928-244.16806 390.04868-240.77238 166.1735 3.39569 335.78981 111.87404 518.90199 176.39204 183.20399 64.38034 379.90383 84.80034 532.53556 44.09801 152.63173-40.70232 261.14945-142.48108 356.12541-220.49005 94.97596-78.00896 176.36425-132.29402 206.8906-152.57636 30.52634-20.41999 10.19075-6.83725-37.27428 57.68075-47.51093 64.38034-122.1513 179.69595-189.95191 274.68334-67.84653 94.98739-128.89923 169.60067-261.14946 206.9073-132.29613 37.30665-335.83572 37.30665-505.36022 3.3957-169.61632-33.91096-305.30938-101.77876-430.81168-135.68972-125.4564-33.91096-240.76795-33.91096-264.50047-71.2176-23.77841-37.30664 44.06811-111.9658 142.44099-189.97478 98.32697-78.00896 227.22619-159.41361 376.461-203.51162 149.23482-44.09801 318.85114-50.7976 434.1627-40.70233 115.31155 10.23294 176.36424 37.30664 206.89059 105.17444 30.52634 67.82192 30.52634 176.43793-10.19075 240.81827-40.7171 64.42623-122.1054 84.80034-203.49368 94.98739-81.4342 10.09528-162.82249 10.09528-230.6231-27.21136-67.84654-37.26076-122.1513-111.87404-122.1513-196.67437 0-84.80034 54.30476-179.78773 169.61632-220.49005 115.31155-40.70233 291.7217-27.11959 461.29212-6.6996 169.5704 20.32823 332.3929 47.40193 495.16947 74.61329" stroke-width="10" stroke-miterlimit="22.926"/>
  </g>
</svg>